<?xml version="1.0" encoding="UTF-8" standalone="no"?><!DOCTYPE svg PUBLIC "-//W3C//DTD SVG 1.1//EN" "http://www.w3.org/Graphics/SVG/1.1/DTD/svg11.dtd"><svg width="100%" height="100%" viewBox="0 0 427 427" version="1.1" xmlns="http://www.w3.org/2000/svg" xmlns:xlink="http://www.w3.org/1999/xlink" xml:space="preserve" xmlns:serif="http://www.serif.com/" style="fill-rule:evenodd;clip-rule:evenodd;stroke-linejoin:round;stroke-miterlimit:2;"><circle cx="213.483" cy="213.483" r="213.483" style="fill:#ff385a;"/><g><path d="M120.115,349.476c-8.816,-5.125 -17.632,-10.249 -26.449,-15.373c-0.956,-0.556 -0.171,1.385 0.127,0.617c0.156,-0.401 0.31,-0.803 0.467,-1.205c0.639,-1.654 1.28,-3.306 1.92,-4.96c6.181,-15.96 12.361,-31.918 18.542,-47.878c19.906,-51.401 39.813,-102.803 59.718,-154.204c9.97,-25.743 19.939,-51.485 29.908,-77.228c-0.481,0.196 -0.961,0.391 -1.442,0.588c8.816,5.122 17.631,10.244 26.446,15.367c0.956,0.556 0.171,-1.385 -0.126,-0.617c-0.156,0.401 -0.312,0.803 -0.468,1.205c-0.64,1.653 -1.279,3.306 -1.92,4.96c-6.181,15.96 -12.361,31.919 -18.541,47.879c-19.906,51.402 -39.811,102.804 -59.717,154.207c-9.969,25.743 -19.937,51.485 -29.907,77.229c-0.458,1.182 1.441,1.689 1.894,0.522c11.904,-30.74 23.808,-61.481 35.712,-92.221c19.585,-50.575 39.17,-101.149 58.756,-151.723l16.18,-41.783c0.156,-0.405 -0.099,-0.906 -0.452,-1.11c-8.955,-5.203 -17.91,-10.408 -26.867,-15.612c-0.591,-0.343 -1.216,0.003 -1.442,0.587l-35.713,92.22l-58.756,151.72c-5.395,13.928 -10.788,27.855 -16.181,41.782c-0.157,0.405 0.099,0.905 0.451,1.11c8.956,5.205 17.913,10.411 26.869,15.616c1.097,0.638 2.085,-1.059 0.991,-1.695" style="fill:#252525;fill-rule:nonzero;stroke:#252525;stroke-width:1.05px;"/><path d="M341.701,220.972c-31.825,18.374 -63.649,36.747 -95.474,55.121l-121.456,70.122c-1.483,0.857 -2.966,1.713 -4.448,2.568c-0.345,0.2 -0.688,0.398 -1.033,0.597c0.015,-0.009 1.305,0.375 -0.096,-0.44c-8.65,-5.027 -17.3,-10.053 -25.949,-15.081l0,1.695l95.475,-55.12c40.485,-23.373 80.97,-46.747 121.456,-70.12c1.483,-0.856 2.965,-1.713 4.448,-2.569l1.033,-0.596c-0.015,0.009 -1.305,-0.375 0.097,0.44c8.649,5.026 17.298,10.053 25.947,15.079c1.098,0.638 2.086,-1.06 0.991,-1.696c-8.956,-5.204 -17.913,-10.41 -26.869,-15.615c-0.306,-0.177 -0.686,-0.176 -0.991,0l-95.475,55.121c-40.484,23.373 -80.97,46.747 -121.456,70.12c-1.881,1.087 -3.764,2.174 -5.646,3.261c-0.639,0.369 -0.636,1.325 -0,1.695c8.956,5.206 17.912,10.412 26.87,15.618c0.304,0.177 0.685,0.175 0.99,-0c31.825,-18.375 63.649,-36.748 95.474,-55.122l121.456,-70.122c1.882,-1.086 3.765,-2.174 5.647,-3.26c1.096,-0.633 0.108,-2.331 -0.991,-1.696" style="fill:#252525;fill-rule:nonzero;stroke:#252525;stroke-width:1.05px;"/><path d="M229.42,65.092c24.307,34.142 48.612,68.284 72.918,102.425c13.003,18.267 26.008,36.533 39.01,54.798c0.449,-0.447 0.897,-0.895 1.344,-1.343c-8.815,-5.124 -17.632,-10.247 -26.449,-15.37c-0.8,-0.465 0.216,0.506 -0.31,-0.232c-0.389,-0.547 -0.778,-1.093 -1.168,-1.639c-1.561,-2.195 -3.122,-4.389 -4.684,-6.581c-13.435,-18.871 -26.868,-37.743 -40.303,-56.614c-21.843,-30.682 -43.686,-61.364 -65.529,-92.046c-0.449,0.446 -0.895,0.894 -1.343,1.343c8.955,5.203 17.911,10.407 26.867,15.611c1.097,0.638 2.085,-1.06 0.99,-1.696c-8.955,-5.203 -17.91,-10.408 -26.867,-15.612c-0.804,-0.468 -1.935,0.511 -1.343,1.343c24.305,34.142 48.61,68.284 72.916,102.425c11.648,16.363 23.298,32.727 34.947,49.089c1.681,2.362 3.108,5.301 5.653,6.779c8.544,4.966 17.088,9.93 25.632,14.896c0.805,0.468 1.936,-0.511 1.343,-1.343c-24.306,-34.142 -48.612,-68.285 -72.917,-102.427c-13.004,-18.265 -26.008,-36.532 -39.011,-54.797c-0.728,-1.023 -2.432,-0.044 -1.696,0.991" style="fill:#252525;fill-rule:nonzero;stroke:#252525;stroke-width:1.05px;"/></g></svg>