<?xml version="1.0" encoding="UTF-8" standalone="no"?><!DOCTYPE svg PUBLIC "-//W3C//DTD SVG 1.1//EN" "http://www.w3.org/Graphics/SVG/1.1/DTD/svg11.dtd"><svg width="100%" height="100%" viewBox="0 0 32 32" version="1.1" xmlns="http://www.w3.org/2000/svg" xmlns:xlink="http://www.w3.org/1999/xlink" xml:space="preserve" xmlns:serif="http://www.serif.com/" style="fill-rule:evenodd;clip-rule:evenodd;stroke-linejoin:round;stroke-miterlimit:2;"><path d="M6.911,29.985c-0.823,-0.479 -1.646,-0.957 -2.469,-1.435c-0.089,-0.052 -0.016,0.129 0.012,0.057c0.015,-0.037 0.029,-0.075 0.044,-0.112c0.06,-0.154 0.119,-0.309 0.179,-0.463c0.577,-1.49 1.154,-2.979 1.731,-4.469c1.858,-4.798 3.716,-9.596 5.574,-14.394c0.931,-2.403 1.861,-4.806 2.792,-7.209c-0.045,0.018 -0.09,0.037 -0.135,0.055c0.823,0.478 1.646,0.956 2.469,1.434c0.089,0.052 0.016,-0.129 -0.012,-0.057c-0.014,0.037 -0.029,0.075 -0.044,0.112c-0.059,0.155 -0.119,0.309 -0.179,0.463c-0.577,1.49 -1.154,2.98 -1.73,4.469c-1.859,4.798 -3.717,9.597 -5.575,14.395c-0.93,2.403 -1.861,4.806 -2.791,7.209c-0.043,0.11 0.134,0.157 0.176,0.048c1.112,-2.869 2.223,-5.739 3.334,-8.608c1.828,-4.721 3.656,-9.442 5.484,-14.162l1.511,-3.901c0.014,-0.037 -0.009,-0.084 -0.042,-0.103c-0.836,-0.486 -1.672,-0.972 -2.508,-1.457c-0.055,-0.032 -0.114,-0 -0.135,0.054l-3.333,8.608l-5.485,14.163c-0.504,1.3 -1.007,2.6 -1.51,3.9c-0.015,0.037 0.009,0.084 0.042,0.103c0.836,0.486 1.672,0.972 2.508,1.458c0.102,0.06 0.194,-0.099 0.092,-0.158" style="fill:#fea802;fill-rule:nonzero;"/><path d="M27.595,17.99c-2.971,1.715 -5.941,3.43 -8.912,5.145l-11.337,6.545c-0.139,0.08 -0.277,0.16 -0.415,0.24c-0.032,0.019 -0.065,0.037 -0.097,0.056c0.002,-0.001 0.122,0.035 -0.009,-0.041c-0.807,-0.47 -1.614,-0.939 -2.422,-1.408l0,0.158l8.912,-5.145c3.779,-2.182 7.558,-4.363 11.337,-6.545c0.139,-0.08 0.277,-0.16 0.416,-0.24l0.096,-0.056c-0.001,0.001 -0.122,-0.035 0.009,0.041c0.807,0.47 1.615,0.939 2.422,1.408c0.102,0.06 0.195,-0.099 0.092,-0.158c-0.836,-0.486 -1.672,-0.972 -2.508,-1.458c-0.028,-0.016 -0.064,-0.016 -0.092,0l-8.912,5.145c-3.779,2.182 -7.558,4.364 -11.337,6.546c-0.176,0.101 -0.352,0.203 -0.527,0.304c-0.06,0.034 -0.06,0.124 -0,0.158c0.836,0.486 1.672,0.972 2.508,1.458c0.028,0.017 0.064,0.016 0.092,0c2.971,-1.715 5.942,-3.43 8.912,-5.145l11.337,-6.546c0.176,-0.101 0.352,-0.203 0.527,-0.304c0.103,-0.059 0.011,-0.218 -0.092,-0.158" style="fill:#fea802;fill-rule:nonzero;"/><path d="M17.114,3.439c2.269,3.187 4.538,6.374 6.807,9.561c1.213,1.705 2.427,3.41 3.641,5.115c0.042,-0.042 0.084,-0.083 0.125,-0.125c-0.822,-0.479 -1.645,-0.957 -2.468,-1.435c-0.075,-0.043 0.02,0.047 -0.029,-0.022c-0.037,-0.051 -0.073,-0.102 -0.109,-0.153c-0.146,-0.204 -0.292,-0.409 -0.438,-0.614c-1.254,-1.761 -2.508,-3.523 -3.762,-5.284c-2.038,-2.865 -4.077,-5.728 -6.116,-8.592c-0.042,0.041 -0.084,0.083 -0.126,0.125c0.836,0.486 1.672,0.971 2.508,1.457c0.103,0.06 0.195,-0.099 0.093,-0.158c-0.836,-0.486 -1.672,-0.972 -2.508,-1.457c-0.075,-0.044 -0.181,0.047 -0.126,0.125c2.269,3.187 4.538,6.374 6.807,9.561c1.087,1.527 2.174,3.054 3.262,4.582c0.157,0.22 0.29,0.495 0.527,0.633c0.798,0.463 1.595,0.926 2.393,1.39c0.075,0.044 0.181,-0.048 0.125,-0.125c-2.268,-3.187 -4.537,-6.374 -6.806,-9.561c-1.214,-1.705 -2.428,-3.41 -3.641,-5.115c-0.068,-0.096 -0.227,-0.004 -0.159,0.092" style="fill:#fea802;fill-rule:nonzero;"/></svg>