<?xml version="1.0" encoding="UTF-8" standalone="no"?><!DOCTYPE svg PUBLIC "-//W3C//DTD SVG 1.1//EN" "http://www.w3.org/Graphics/SVG/1.1/DTD/svg11.dtd"><svg width="100%" height="100%" viewBox="0 0 32 32" version="1.1" xmlns="http://www.w3.org/2000/svg" xmlns:xlink="http://www.w3.org/1999/xlink" xml:space="preserve" xmlns:serif="http://www.serif.com/" style="fill-rule:evenodd;clip-rule:evenodd;stroke-linejoin:round;stroke-miterlimit:2;"><rect id="favicon" x="0" y="0" width="32" height="32" style="fill:none;"/><clipPath id="_clip1"><rect x="0" y="0" width="32" height="32"/></clipPath><g clip-path="url(#_clip1)"><circle cx="16" cy="16" r="16" style="fill:#ff385a;"/><clipPath id="_clip2"><circle cx="16" cy="16" r="16"/></clipPath><g clip-path="url(#_clip2)"><g><path d="M16.809,27.065c-3.649,-2.121 -7.298,-4.243 -10.948,-6.364c-0.396,-0.23 -0.071,0.574 0.052,0.256c0.065,-0.166 0.129,-0.333 0.194,-0.499c0.264,-0.685 0.53,-1.369 0.794,-2.053c2.559,-6.607 5.117,-13.213 7.676,-19.82c8.24,-21.277 16.481,-42.555 24.721,-63.833c4.127,-10.656 8.253,-21.313 12.38,-31.969c-0.199,0.081 -0.398,0.162 -0.597,0.243c3.649,2.121 7.298,4.241 10.947,6.362c0.396,0.23 0.071,-0.574 -0.052,-0.256c-0.064,0.166 -0.129,0.333 -0.193,0.499c-0.265,0.684 -0.53,1.369 -0.795,2.053c-2.559,6.607 -5.117,13.213 -7.675,19.82c-8.24,21.278 -16.48,42.556 -24.72,63.835c-4.127,10.656 -8.253,21.312 -12.38,31.969c-0.19,0.489 0.596,0.699 0.784,0.216c4.927,-12.725 9.855,-25.45 14.783,-38.175c8.107,-20.936 16.214,-41.871 24.322,-62.807l6.698,-17.296c0.065,-0.167 -0.041,-0.375 -0.187,-0.459c-3.707,-2.154 -7.414,-4.309 -11.122,-6.463c-0.244,-0.142 -0.503,0.001 -0.597,0.243l-14.783,38.175l-24.323,62.805c-2.233,5.765 -4.466,11.531 -6.698,17.296c-0.065,0.167 0.041,0.374 0.187,0.459c3.707,2.155 7.415,4.31 11.122,6.465c0.454,0.264 0.863,-0.439 0.41,-0.702" style="fill:#252525;fill-rule:nonzero;stroke:#252525;stroke-width:1.05px;"/><path d="M108.536,-26.13c-13.174,7.606 -26.348,15.212 -39.522,22.818l-50.277,29.027c-0.614,0.355 -1.228,0.709 -1.841,1.063c-0.143,0.083 -0.285,0.165 -0.428,0.247c0.006,-0.003 0.54,0.155 -0.04,-0.182c-3.581,-2.081 -7.161,-4.162 -10.741,-6.243l-0,0.702l39.522,-22.817c16.759,-9.676 33.518,-19.352 50.277,-29.027c0.614,-0.354 1.227,-0.709 1.841,-1.063l0.428,-0.247c-0.006,0.004 -0.54,-0.155 0.04,0.182c3.58,2.081 7.161,4.162 10.741,6.242c0.454,0.264 0.863,-0.438 0.41,-0.702c-3.707,-2.154 -7.415,-4.309 -11.122,-6.464c-0.127,-0.073 -0.284,-0.073 -0.411,0l-39.522,22.818c-16.759,9.675 -33.518,19.351 -50.277,29.026c-0.779,0.45 -1.558,0.9 -2.337,1.35c-0.265,0.153 -0.263,0.549 -0,0.702c3.707,2.155 7.415,4.31 11.123,6.465c0.125,0.073 0.283,0.073 0.409,0c13.174,-7.606 26.348,-15.212 39.523,-22.818l50.277,-29.027c0.779,-0.45 1.558,-0.9 2.337,-1.35c0.454,-0.262 0.045,-0.965 -0.41,-0.702" style="fill:#252525;fill-rule:nonzero;stroke:#252525;stroke-width:1.05px;"/></g></g></g></svg>