<?xml version="1.0" encoding="UTF-8" standalone="no"?><!DOCTYPE svg PUBLIC "-//W3C//DTD SVG 1.1//EN" "http://www.w3.org/Graphics/SVG/1.1/DTD/svg11.dtd"><svg width="100%" height="100%" viewBox="0 0 253 305" version="1.1" xmlns="http://www.w3.org/2000/svg" xmlns:xlink="http://www.w3.org/1999/xlink" xml:space="preserve" xmlns:serif="http://www.serif.com/" style="fill-rule:evenodd;clip-rule:evenodd;stroke-linejoin:round;stroke-miterlimit:2;"><g><path d="M28.882,301.999c-8.816,-5.124 -17.632,-10.248 -26.449,-15.372c-0.955,-0.556 -0.171,1.385 0.127,0.617c0.156,-0.402 0.311,-0.803 0.467,-1.205c0.64,-1.654 1.28,-3.306 1.92,-4.96c6.181,-15.96 12.361,-31.919 18.542,-47.878c19.906,-51.402 39.813,-102.803 59.718,-154.204c9.97,-25.743 19.939,-51.486 29.909,-77.228c-0.481,0.195 -0.962,0.391 -1.443,0.587c8.816,5.123 17.631,10.245 26.446,15.367c0.956,0.556 0.171,-1.385 -0.126,-0.617c-0.156,0.402 -0.311,0.803 -0.468,1.206c-0.639,1.653 -1.279,3.306 -1.92,4.96c-6.181,15.959 -12.361,31.919 -18.541,47.878c-19.905,51.403 -39.811,102.805 -59.717,154.208c-9.969,25.743 -19.937,51.485 -29.907,77.229c-0.458,1.181 1.441,1.688 1.894,0.521c11.904,-30.74 23.808,-61.481 35.712,-92.221c19.586,-50.575 39.17,-101.149 58.756,-151.723l16.18,-41.783c0.156,-0.404 -0.099,-0.905 -0.452,-1.109c-8.955,-5.204 -17.91,-10.408 -26.867,-15.612c-0.59,-0.343 -1.215,0.003 -1.441,0.587l-35.714,92.219l-58.756,151.721c-5.395,13.927 -10.788,27.854 -16.181,41.782c-0.157,0.404 0.099,0.904 0.451,1.109c8.956,5.206 17.913,10.412 26.869,15.617c1.097,0.638 2.085,-1.06 0.991,-1.696" style="fill:#252525;fill-rule:nonzero;stroke:#252525;stroke-width:1.05px;"/><path d="M250.469,173.495c-31.825,18.375 -63.65,36.748 -95.475,55.122l-121.456,70.122c-1.483,0.856 -2.966,1.712 -4.448,2.568c-0.344,0.2 -0.688,0.398 -1.033,0.597c0.016,-0.009 1.305,0.374 -0.096,-0.44c-8.65,-5.027 -17.299,-10.054 -25.949,-15.082l0,1.696l95.475,-55.12c40.485,-23.373 80.97,-46.748 121.456,-70.121c1.483,-0.855 2.965,-1.712 4.449,-2.568l1.032,-0.597c-0.015,0.009 -1.305,-0.374 0.097,0.44c8.649,5.027 17.298,10.054 25.948,15.079c1.097,0.638 2.085,-1.059 0.99,-1.696c-8.956,-5.204 -17.913,-10.409 -26.869,-15.614c-0.306,-0.178 -0.686,-0.177 -0.991,-0l-95.475,55.121c-40.484,23.373 -80.97,46.747 -121.455,70.12c-1.882,1.087 -3.765,2.174 -5.647,3.26c-0.639,0.369 -0.636,1.326 -0,1.696c8.956,5.205 17.913,10.411 26.87,15.618c0.304,0.177 0.685,0.175 0.99,-0c31.825,-18.375 63.65,-36.749 95.475,-55.122l121.455,-70.122c1.882,-1.087 3.766,-2.174 5.647,-3.261c1.096,-0.632 0.108,-2.33 -0.99,-1.696" style="fill:#252525;fill-rule:nonzero;stroke:#252525;stroke-width:1.05px;"/><path d="M138.187,17.615c24.307,34.142 48.612,68.284 72.918,102.426c13.004,18.266 26.008,36.533 39.011,54.798c0.448,-0.448 0.896,-0.895 1.343,-1.343c-8.815,-5.124 -17.632,-10.247 -26.449,-15.371c-0.799,-0.464 0.217,0.507 -0.31,-0.232c-0.389,-0.546 -0.778,-1.093 -1.167,-1.639c-1.562,-2.194 -3.123,-4.388 -4.685,-6.581c-13.434,-18.871 -26.868,-37.742 -40.303,-56.613c-21.843,-30.683 -43.686,-61.364 -65.529,-92.047c-0.448,0.447 -0.895,0.895 -1.343,1.343c8.956,5.204 17.911,10.407 26.867,15.612c1.097,0.638 2.085,-1.061 0.99,-1.696c-8.955,-5.204 -17.91,-10.408 -26.866,-15.612c-0.805,-0.468 -1.936,0.51 -1.344,1.343c24.305,34.141 48.611,68.283 72.917,102.425c11.648,16.363 23.298,32.726 34.946,49.089c1.681,2.362 3.108,5.3 5.653,6.779c8.544,4.965 17.088,9.93 25.632,14.896c0.805,0.467 1.936,-0.511 1.343,-1.344c-24.306,-34.142 -48.612,-68.284 -72.917,-102.426c-13.004,-18.266 -26.008,-36.532 -39.011,-54.797c-0.728,-1.023 -2.432,-0.044 -1.696,0.99" style="fill:#252525;fill-rule:nonzero;stroke:#252525;stroke-width:1.05px;"/></g></svg>